%TF.GenerationSoftware,KiCad,Pcbnew,8.0.3*%
%TF.CreationDate,2024-07-01T13:17:50-05:00*%
%TF.ProjectId,Cartpole_ADC_interface,43617274-706f-46c6-955f-4144435f696e,rev?*%
%TF.SameCoordinates,Original*%
%TF.FileFunction,Legend,Bot*%
%TF.FilePolarity,Positive*%
%FSLAX46Y46*%
G04 Gerber Fmt 4.6, Leading zero omitted, Abs format (unit mm)*
G04 Created by KiCad (PCBNEW 8.0.3) date 2024-07-01 13:17:50*
%MOMM*%
%LPD*%
G01*
G04 APERTURE LIST*
%ADD10C,0.150000*%
%ADD11C,0.304800*%
G04 APERTURE END LIST*
D10*
X95002438Y-98738095D02*
X94954819Y-98642857D01*
X94954819Y-98642857D02*
X94954819Y-98500000D01*
X94954819Y-98500000D02*
X95002438Y-98357143D01*
X95002438Y-98357143D02*
X95097676Y-98261905D01*
X95097676Y-98261905D02*
X95192914Y-98214286D01*
X95192914Y-98214286D02*
X95383390Y-98166667D01*
X95383390Y-98166667D02*
X95526247Y-98166667D01*
X95526247Y-98166667D02*
X95716723Y-98214286D01*
X95716723Y-98214286D02*
X95811961Y-98261905D01*
X95811961Y-98261905D02*
X95907200Y-98357143D01*
X95907200Y-98357143D02*
X95954819Y-98500000D01*
X95954819Y-98500000D02*
X95954819Y-98595238D01*
X95954819Y-98595238D02*
X95907200Y-98738095D01*
X95907200Y-98738095D02*
X95859580Y-98785714D01*
X95859580Y-98785714D02*
X95526247Y-98785714D01*
X95526247Y-98785714D02*
X95526247Y-98595238D01*
X95954819Y-99214286D02*
X94954819Y-99214286D01*
X94954819Y-99214286D02*
X95954819Y-99785714D01*
X95954819Y-99785714D02*
X94954819Y-99785714D01*
X95954819Y-100261905D02*
X94954819Y-100261905D01*
X94954819Y-100261905D02*
X94954819Y-100500000D01*
X94954819Y-100500000D02*
X95002438Y-100642857D01*
X95002438Y-100642857D02*
X95097676Y-100738095D01*
X95097676Y-100738095D02*
X95192914Y-100785714D01*
X95192914Y-100785714D02*
X95383390Y-100833333D01*
X95383390Y-100833333D02*
X95526247Y-100833333D01*
X95526247Y-100833333D02*
X95716723Y-100785714D01*
X95716723Y-100785714D02*
X95811961Y-100738095D01*
X95811961Y-100738095D02*
X95907200Y-100642857D01*
X95907200Y-100642857D02*
X95954819Y-100500000D01*
X95954819Y-100500000D02*
X95954819Y-100261905D01*
X94954819Y-101666667D02*
X95954819Y-102000000D01*
X95954819Y-102000000D02*
X94954819Y-102333333D01*
X95859580Y-103238095D02*
X95907200Y-103190476D01*
X95907200Y-103190476D02*
X95954819Y-103047619D01*
X95954819Y-103047619D02*
X95954819Y-102952381D01*
X95954819Y-102952381D02*
X95907200Y-102809524D01*
X95907200Y-102809524D02*
X95811961Y-102714286D01*
X95811961Y-102714286D02*
X95716723Y-102666667D01*
X95716723Y-102666667D02*
X95526247Y-102619048D01*
X95526247Y-102619048D02*
X95383390Y-102619048D01*
X95383390Y-102619048D02*
X95192914Y-102666667D01*
X95192914Y-102666667D02*
X95097676Y-102714286D01*
X95097676Y-102714286D02*
X95002438Y-102809524D01*
X95002438Y-102809524D02*
X94954819Y-102952381D01*
X94954819Y-102952381D02*
X94954819Y-103047619D01*
X94954819Y-103047619D02*
X95002438Y-103190476D01*
X95002438Y-103190476D02*
X95050057Y-103238095D01*
X95859580Y-104238095D02*
X95907200Y-104190476D01*
X95907200Y-104190476D02*
X95954819Y-104047619D01*
X95954819Y-104047619D02*
X95954819Y-103952381D01*
X95954819Y-103952381D02*
X95907200Y-103809524D01*
X95907200Y-103809524D02*
X95811961Y-103714286D01*
X95811961Y-103714286D02*
X95716723Y-103666667D01*
X95716723Y-103666667D02*
X95526247Y-103619048D01*
X95526247Y-103619048D02*
X95383390Y-103619048D01*
X95383390Y-103619048D02*
X95192914Y-103666667D01*
X95192914Y-103666667D02*
X95097676Y-103714286D01*
X95097676Y-103714286D02*
X95002438Y-103809524D01*
X95002438Y-103809524D02*
X94954819Y-103952381D01*
X94954819Y-103952381D02*
X94954819Y-104047619D01*
X94954819Y-104047619D02*
X95002438Y-104190476D01*
X95002438Y-104190476D02*
X95050057Y-104238095D01*
X95040285Y-90374819D02*
X95611713Y-90374819D01*
X95325999Y-90374819D02*
X95325999Y-89374819D01*
X95325999Y-89374819D02*
X95421237Y-89517676D01*
X95421237Y-89517676D02*
X95516475Y-89612914D01*
X95516475Y-89612914D02*
X95611713Y-89660533D01*
D11*
%TO.C,JA1*%
X89230000Y-88650000D02*
X89230000Y-103890000D01*
X89230000Y-103890000D02*
X94310000Y-103890000D01*
X94310000Y-88650000D02*
X89230000Y-88650000D01*
X94310000Y-98810000D02*
X89230000Y-98810000D01*
X94310000Y-103890000D02*
X94310000Y-88650000D01*
%TD*%
M02*
