%TF.GenerationSoftware,KiCad,Pcbnew,8.0.3*%
%TF.CreationDate,2024-07-02T09:20:04-05:00*%
%TF.ProjectId,Cartpole_ADC_interface,43617274-706f-46c6-955f-4144435f696e,rev?*%
%TF.SameCoordinates,Original*%
%TF.FileFunction,Copper,L1,Top*%
%TF.FilePolarity,Positive*%
%FSLAX46Y46*%
G04 Gerber Fmt 4.6, Leading zero omitted, Abs format (unit mm)*
G04 Created by KiCad (PCBNEW 8.0.3) date 2024-07-02 09:20:04*
%MOMM*%
%LPD*%
G01*
G04 APERTURE LIST*
G04 Aperture macros list*
%AMRoundRect*
0 Rectangle with rounded corners*
0 $1 Rounding radius*
0 $2 $3 $4 $5 $6 $7 $8 $9 X,Y pos of 4 corners*
0 Add a 4 corners polygon primitive as box body*
4,1,4,$2,$3,$4,$5,$6,$7,$8,$9,$2,$3,0*
0 Add four circle primitives for the rounded corners*
1,1,$1+$1,$2,$3*
1,1,$1+$1,$4,$5*
1,1,$1+$1,$6,$7*
1,1,$1+$1,$8,$9*
0 Add four rect primitives between the rounded corners*
20,1,$1+$1,$2,$3,$4,$5,0*
20,1,$1+$1,$4,$5,$6,$7,0*
20,1,$1+$1,$6,$7,$8,$9,0*
20,1,$1+$1,$8,$9,$2,$3,0*%
G04 Aperture macros list end*
%TA.AperFunction,ComponentPad*%
%ADD10R,1.700000X1.700000*%
%TD*%
%TA.AperFunction,ComponentPad*%
%ADD11O,1.700000X1.700000*%
%TD*%
%TA.AperFunction,SMDPad,CuDef*%
%ADD12RoundRect,0.250000X-0.412500X-0.650000X0.412500X-0.650000X0.412500X0.650000X-0.412500X0.650000X0*%
%TD*%
%TA.AperFunction,ComponentPad*%
%ADD13R,1.524000X1.524000*%
%TD*%
%TA.AperFunction,ComponentPad*%
%ADD14C,1.524000*%
%TD*%
%TA.AperFunction,SMDPad,CuDef*%
%ADD15RoundRect,0.250000X0.650000X-0.412500X0.650000X0.412500X-0.650000X0.412500X-0.650000X-0.412500X0*%
%TD*%
%TA.AperFunction,SMDPad,CuDef*%
%ADD16RoundRect,0.250000X0.400000X0.625000X-0.400000X0.625000X-0.400000X-0.625000X0.400000X-0.625000X0*%
%TD*%
%TA.AperFunction,ComponentPad*%
%ADD17RoundRect,0.250000X-0.725000X0.600000X-0.725000X-0.600000X0.725000X-0.600000X0.725000X0.600000X0*%
%TD*%
%TA.AperFunction,ComponentPad*%
%ADD18O,1.950000X1.700000*%
%TD*%
%TA.AperFunction,SMDPad,CuDef*%
%ADD19RoundRect,0.250000X-0.625000X0.400000X-0.625000X-0.400000X0.625000X-0.400000X0.625000X0.400000X0*%
%TD*%
%TA.AperFunction,Conductor*%
%ADD20C,0.200000*%
%TD*%
G04 APERTURE END LIST*
D10*
%TO.P,J2,1,Pin_1*%
%TO.N,GND*%
X100000000Y-90000000D03*
D11*
%TO.P,J2,2,Pin_2*%
%TO.N,Net-(J1-Pin_2)*%
X102540000Y-90000000D03*
%TO.P,J2,3,Pin_3*%
%TO.N,Net-(J1-Pin_3)*%
X105080000Y-90000000D03*
%TD*%
D12*
%TO.P,C3,1*%
%TO.N,Net-(JA1-Pin_3)*%
X97375000Y-96500000D03*
%TO.P,C3,2*%
%TO.N,GND*%
X100500000Y-96500000D03*
%TD*%
D13*
%TO.P,JA1,1,Pin_1*%
%TO.N,unconnected-(JA1-Pin_1-Pad1)*%
X93040000Y-89920000D03*
D14*
%TO.P,JA1,2,Pin_2*%
%TO.N,unconnected-(JA1-Pin_2-Pad2)*%
X93040000Y-92460000D03*
%TO.P,JA1,3,Pin_3*%
%TO.N,Net-(JA1-Pin_3)*%
X93040000Y-95000000D03*
%TO.P,JA1,4,Pin_4*%
%TO.N,unconnected-(JA1-Pin_4-Pad4)*%
X93040000Y-97540000D03*
%TO.P,JA1,5,Pin_5*%
%TO.N,GND*%
X93040000Y-100080000D03*
%TO.P,JA1,6,Pin_6*%
%TO.N,Net-(JA1-Pin_6)*%
X93040000Y-102620000D03*
%TO.P,JA1,7,Pin_7*%
%TO.N,unconnected-(JA1-Pin_7-Pad7)*%
X90500000Y-89920000D03*
%TO.P,JA1,8,Pin_8*%
%TO.N,unconnected-(JA1-Pin_8-Pad8)*%
X90500000Y-92460000D03*
%TO.P,JA1,9,Pin_9*%
%TO.N,unconnected-(JA1-Pin_9-Pad9)*%
X90500000Y-95000000D03*
%TO.P,JA1,10,Pin_10*%
%TO.N,unconnected-(JA1-Pin_10-Pad10)*%
X90500000Y-97540000D03*
%TO.P,JA1,11,Pin_11*%
%TO.N,unconnected-(JA1-Pin_11-Pad11)*%
X90500000Y-100080000D03*
%TO.P,JA1,12,Pin_12*%
%TO.N,unconnected-(JA1-Pin_12-Pad12)*%
X90500000Y-102620000D03*
%TD*%
D15*
%TO.P,C2,1*%
%TO.N,GND*%
X103000000Y-96500000D03*
%TO.P,C2,2*%
%TO.N,Net-(J1-Pin_2)*%
X103000000Y-93375000D03*
%TD*%
D16*
%TO.P,R2,1*%
%TO.N,Net-(J1-Pin_3)*%
X100500000Y-93000000D03*
%TO.P,R2,2*%
%TO.N,Net-(JA1-Pin_3)*%
X97400000Y-93000000D03*
%TD*%
D17*
%TO.P,J1,1,Pin_1*%
%TO.N,GND*%
X108500000Y-95500000D03*
D18*
%TO.P,J1,2,Pin_2*%
%TO.N,Net-(J1-Pin_2)*%
X108500000Y-98000000D03*
%TO.P,J1,3,Pin_3*%
%TO.N,Net-(J1-Pin_3)*%
X108500000Y-100500000D03*
%TD*%
D12*
%TO.P,C1,1*%
%TO.N,GND*%
X97375000Y-100000000D03*
%TO.P,C1,2*%
%TO.N,Net-(C1-Pad2)*%
X100500000Y-100000000D03*
%TD*%
%TO.P,FB1,1*%
%TO.N,Net-(JA1-Pin_6)*%
X97375000Y-102500000D03*
%TO.P,FB1,2*%
%TO.N,Net-(C1-Pad2)*%
X100500000Y-102500000D03*
%TD*%
D19*
%TO.P,R1,1*%
%TO.N,Net-(J1-Pin_2)*%
X103000000Y-99400000D03*
%TO.P,R1,2*%
%TO.N,Net-(C1-Pad2)*%
X103000000Y-102500000D03*
%TD*%
D20*
%TO.N,Net-(C1-Pad2)*%
X100000000Y-102500000D02*
X100000000Y-99625000D01*
X100000000Y-99625000D02*
X100125000Y-99500000D01*
X103000000Y-102500000D02*
X100000000Y-102500000D01*
%TO.N,GND*%
X100125000Y-96500000D02*
X100000000Y-96500000D01*
X100000000Y-96500000D02*
X97000000Y-99500000D01*
X98500000Y-91500000D02*
X98500000Y-94875000D01*
X103000000Y-96500000D02*
X107500000Y-96500000D01*
X100000000Y-90000000D02*
X98500000Y-91500000D01*
X97000000Y-99500000D02*
X94580000Y-99500000D01*
X94580000Y-99500000D02*
X94040000Y-100040000D01*
X94040000Y-100040000D02*
X93080000Y-100040000D01*
X100125000Y-96500000D02*
X103000000Y-96500000D01*
X98500000Y-94875000D02*
X100125000Y-96500000D01*
X93080000Y-100040000D02*
X93040000Y-100080000D01*
X107500000Y-96500000D02*
X108500000Y-95500000D01*
%TO.N,Net-(J1-Pin_3)*%
X101390000Y-92110000D02*
X100500000Y-93000000D01*
X101390000Y-89523654D02*
X101390000Y-92110000D01*
X110900000Y-98600000D02*
X110900000Y-94834314D01*
X108500000Y-100500000D02*
X109000000Y-100500000D01*
X102063654Y-88850000D02*
X101390000Y-89523654D01*
X107180000Y-92100000D02*
X108165686Y-92100000D01*
X100000000Y-92540000D02*
X100000000Y-93000000D01*
X109000000Y-100500000D02*
X110900000Y-98600000D01*
X110900000Y-94834314D02*
X108165686Y-92100000D01*
X103930000Y-88850000D02*
X102063654Y-88850000D01*
X105080000Y-90000000D02*
X103930000Y-88850000D01*
X105080000Y-90000000D02*
X107180000Y-92100000D01*
%TO.N,Net-(JA1-Pin_3)*%
X96900000Y-94274999D02*
X96174999Y-95000000D01*
X95500000Y-96500000D02*
X94000000Y-95000000D01*
X96900000Y-93000000D02*
X96900000Y-94274999D01*
X96174999Y-95000000D02*
X94000000Y-95000000D01*
X97000000Y-96500000D02*
X95500000Y-96500000D01*
X94000000Y-95000000D02*
X93040000Y-95000000D01*
%TO.N,Net-(JA1-Pin_6)*%
X97375000Y-102500000D02*
X93160000Y-102500000D01*
X93160000Y-102500000D02*
X93040000Y-102620000D01*
%TO.N,Net-(J1-Pin_2)*%
X102540000Y-92915000D02*
X103000000Y-93375000D01*
X110000000Y-97500000D02*
X110000000Y-94890256D01*
X102540000Y-90000000D02*
X102540000Y-92915000D01*
X104400000Y-98000000D02*
X108500000Y-98000000D01*
X110000000Y-97500000D02*
X109500000Y-98000000D01*
X109500000Y-98000000D02*
X108500000Y-98000000D01*
X103425000Y-92950000D02*
X103000000Y-93375000D01*
X103000000Y-99400000D02*
X104400000Y-98000000D01*
X108059744Y-92950000D02*
X103425000Y-92950000D01*
X110000000Y-94890256D02*
X108059744Y-92950000D01*
%TD*%
M02*
