%TF.GenerationSoftware,KiCad,Pcbnew,8.0.3*%
%TF.CreationDate,2024-07-01T17:14:51-05:00*%
%TF.ProjectId,Cartpole_HBridge,43617274-706f-46c6-955f-484272696467,rev?*%
%TF.SameCoordinates,Original*%
%TF.FileFunction,Soldermask,Top*%
%TF.FilePolarity,Negative*%
%FSLAX46Y46*%
G04 Gerber Fmt 4.6, Leading zero omitted, Abs format (unit mm)*
G04 Created by KiCad (PCBNEW 8.0.3) date 2024-07-01 17:14:51*
%MOMM*%
%LPD*%
G01*
G04 APERTURE LIST*
G04 Aperture macros list*
%AMRoundRect*
0 Rectangle with rounded corners*
0 $1 Rounding radius*
0 $2 $3 $4 $5 $6 $7 $8 $9 X,Y pos of 4 corners*
0 Add a 4 corners polygon primitive as box body*
4,1,4,$2,$3,$4,$5,$6,$7,$8,$9,$2,$3,0*
0 Add four circle primitives for the rounded corners*
1,1,$1+$1,$2,$3*
1,1,$1+$1,$4,$5*
1,1,$1+$1,$6,$7*
1,1,$1+$1,$8,$9*
0 Add four rect primitives between the rounded corners*
20,1,$1+$1,$2,$3,$4,$5,0*
20,1,$1+$1,$4,$5,$6,$7,0*
20,1,$1+$1,$6,$7,$8,$9,0*
20,1,$1+$1,$8,$9,$2,$3,0*%
G04 Aperture macros list end*
%ADD10RoundRect,0.250000X-1.412500X-0.550000X1.412500X-0.550000X1.412500X0.550000X-1.412500X0.550000X0*%
%ADD11RoundRect,0.250000X-0.900000X1.500000X-0.900000X-1.500000X0.900000X-1.500000X0.900000X1.500000X0*%
%ADD12RoundRect,0.250000X-0.650000X0.412500X-0.650000X-0.412500X0.650000X-0.412500X0.650000X0.412500X0*%
%ADD13RoundRect,0.250000X-0.400000X-0.625000X0.400000X-0.625000X0.400000X0.625000X-0.400000X0.625000X0*%
%ADD14R,1.750000X0.450000*%
%ADD15RoundRect,0.200000X0.200000X-0.750000X0.200000X0.750000X-0.200000X0.750000X-0.200000X-0.750000X0*%
%ADD16R,1.700000X1.700000*%
%ADD17O,1.700000X1.700000*%
%ADD18RoundRect,0.250000X0.650000X-0.412500X0.650000X0.412500X-0.650000X0.412500X-0.650000X-0.412500X0*%
%ADD19C,1.524000*%
%ADD20R,1.524000X1.524000*%
G04 APERTURE END LIST*
D10*
%TO.C,C4*%
X56162500Y-73000000D03*
X61237500Y-73000000D03*
%TD*%
D11*
%TO.C,D1*%
X70500000Y-64500000D03*
X70500000Y-69900000D03*
%TD*%
D12*
%TO.C,C5*%
X65500000Y-62975000D03*
X65500000Y-66100000D03*
%TD*%
%TO.C,C2*%
X69250000Y-58250000D03*
X69250000Y-61375000D03*
%TD*%
D13*
%TO.C,R2*%
X73900000Y-64000000D03*
X77000000Y-64000000D03*
%TD*%
D14*
%TO.C,U1*%
X55337500Y-68500000D03*
X55337500Y-67850000D03*
X55337500Y-67200000D03*
X55337500Y-66550000D03*
X55337500Y-65900000D03*
X55337500Y-65250000D03*
X55337500Y-64600000D03*
X55337500Y-63950000D03*
X55337500Y-63300000D03*
X55337500Y-62650000D03*
X55337500Y-62000000D03*
X55337500Y-61350000D03*
X62537500Y-61350000D03*
X62537500Y-62000000D03*
X62537500Y-62650000D03*
X62537500Y-63300000D03*
X62537500Y-63950000D03*
X62537500Y-64600000D03*
X62537500Y-65250000D03*
X62537500Y-65900000D03*
X62537500Y-66550000D03*
X62537500Y-67200000D03*
X62537500Y-67850000D03*
X62537500Y-68500000D03*
%TD*%
D15*
%TO.C,Q1*%
X74050000Y-72500000D03*
X75950000Y-72500000D03*
X75000000Y-69500000D03*
%TD*%
D12*
%TO.C,C1*%
X73500000Y-58500000D03*
X73500000Y-61625000D03*
%TD*%
D16*
%TO.C,J2*%
X67000000Y-74500000D03*
D17*
X69540000Y-74500000D03*
%TD*%
D13*
%TO.C,R1*%
X73900000Y-66500000D03*
X77000000Y-66500000D03*
%TD*%
D18*
%TO.C,C3*%
X65500000Y-71125000D03*
X65500000Y-68000000D03*
%TD*%
D16*
%TO.C,J3*%
X53380000Y-58500000D03*
D17*
X55920000Y-58500000D03*
X58460000Y-58500000D03*
X61000000Y-58500000D03*
X63540000Y-58500000D03*
X66080000Y-58500000D03*
%TD*%
D19*
%TO.C,J1*%
X46810000Y-73000000D03*
X46810000Y-70460000D03*
X46810000Y-67920000D03*
X46810000Y-65380000D03*
X46810000Y-62840000D03*
X46810000Y-60300000D03*
X49350000Y-73000000D03*
X49350000Y-70460000D03*
X49350000Y-67920000D03*
X49350000Y-65380000D03*
X49350000Y-62840000D03*
D20*
X49350000Y-60300000D03*
%TD*%
M02*
