M48
; DRILL file {KiCad 8.0.3} date 2024-07-01T17:30:14-0500
; FORMAT={-:-/ absolute / inch / decimal}
; #@! TF.CreationDate,2024-07-01T17:30:14-05:00
; #@! TF.GenerationSoftware,Kicad,Pcbnew,8.0.3
; #@! TF.FileFunction,Plated,1,2,PTH
FMAT,2
INCH
; #@! TA.AperFunction,Plated,PTH,ViaDrill
T1C0.0118
; #@! TA.AperFunction,Plated,PTH,ComponentDrill
T2C0.0394
; #@! TA.AperFunction,Plated,PTH,ComponentDrill
T3C0.0400
%
G90
G05
T1
X2.0669Y-2.5098
X2.1063Y-2.6673
X2.3622Y-2.4508
X2.5197Y-2.874
X2.5591Y-2.4311
T2
X2.1016Y-2.3031
X2.2016Y-2.3031
X2.3016Y-2.3031
X2.4016Y-2.3031
X2.5016Y-2.3031
X2.6016Y-2.3031
X2.6378Y-2.9331
X2.7378Y-2.9331
T3
X1.8429Y-2.374
X1.8429Y-2.474
X1.8429Y-2.574
X1.8429Y-2.674
X1.8429Y-2.774
X1.8429Y-2.874
X1.9429Y-2.374
X1.9429Y-2.474
X1.9429Y-2.574
X1.9429Y-2.674
X1.9429Y-2.774
X1.9429Y-2.874
M30
