%TF.GenerationSoftware,KiCad,Pcbnew,8.0.3*%
%TF.CreationDate,2024-07-01T17:14:51-05:00*%
%TF.ProjectId,Cartpole_HBridge,43617274-706f-46c6-955f-484272696467,rev?*%
%TF.SameCoordinates,Original*%
%TF.FileFunction,Legend,Top*%
%TF.FilePolarity,Positive*%
%FSLAX46Y46*%
G04 Gerber Fmt 4.6, Leading zero omitted, Abs format (unit mm)*
G04 Created by KiCad (PCBNEW 8.0.3) date 2024-07-01 17:14:51*
%MOMM*%
%LPD*%
G01*
G04 APERTURE LIST*
%ADD10C,0.150000*%
%ADD11C,0.120000*%
%ADD12C,0.000000*%
%ADD13C,0.304800*%
%ADD14C,1.524000*%
%ADD15R,1.524000X1.524000*%
G04 APERTURE END LIST*
D10*
X53333333Y-75859580D02*
X53285714Y-75907200D01*
X53285714Y-75907200D02*
X53142857Y-75954819D01*
X53142857Y-75954819D02*
X53047619Y-75954819D01*
X53047619Y-75954819D02*
X52904762Y-75907200D01*
X52904762Y-75907200D02*
X52809524Y-75811961D01*
X52809524Y-75811961D02*
X52761905Y-75716723D01*
X52761905Y-75716723D02*
X52714286Y-75526247D01*
X52714286Y-75526247D02*
X52714286Y-75383390D01*
X52714286Y-75383390D02*
X52761905Y-75192914D01*
X52761905Y-75192914D02*
X52809524Y-75097676D01*
X52809524Y-75097676D02*
X52904762Y-75002438D01*
X52904762Y-75002438D02*
X53047619Y-74954819D01*
X53047619Y-74954819D02*
X53142857Y-74954819D01*
X53142857Y-74954819D02*
X53285714Y-75002438D01*
X53285714Y-75002438D02*
X53333333Y-75050057D01*
X54190476Y-75288152D02*
X54190476Y-75954819D01*
X53952381Y-74907200D02*
X53714286Y-75621485D01*
X53714286Y-75621485D02*
X54333333Y-75621485D01*
X73954819Y-69738094D02*
X72954819Y-69738094D01*
X72954819Y-69738094D02*
X72954819Y-69499999D01*
X72954819Y-69499999D02*
X73002438Y-69357142D01*
X73002438Y-69357142D02*
X73097676Y-69261904D01*
X73097676Y-69261904D02*
X73192914Y-69214285D01*
X73192914Y-69214285D02*
X73383390Y-69166666D01*
X73383390Y-69166666D02*
X73526247Y-69166666D01*
X73526247Y-69166666D02*
X73716723Y-69214285D01*
X73716723Y-69214285D02*
X73811961Y-69261904D01*
X73811961Y-69261904D02*
X73907200Y-69357142D01*
X73907200Y-69357142D02*
X73954819Y-69499999D01*
X73954819Y-69499999D02*
X73954819Y-69738094D01*
X73954819Y-68214285D02*
X73954819Y-68785713D01*
X73954819Y-68499999D02*
X72954819Y-68499999D01*
X72954819Y-68499999D02*
X73097676Y-68595237D01*
X73097676Y-68595237D02*
X73192914Y-68690475D01*
X73192914Y-68690475D02*
X73240533Y-68785713D01*
X67859580Y-64666666D02*
X67907200Y-64714285D01*
X67907200Y-64714285D02*
X67954819Y-64857142D01*
X67954819Y-64857142D02*
X67954819Y-64952380D01*
X67954819Y-64952380D02*
X67907200Y-65095237D01*
X67907200Y-65095237D02*
X67811961Y-65190475D01*
X67811961Y-65190475D02*
X67716723Y-65238094D01*
X67716723Y-65238094D02*
X67526247Y-65285713D01*
X67526247Y-65285713D02*
X67383390Y-65285713D01*
X67383390Y-65285713D02*
X67192914Y-65238094D01*
X67192914Y-65238094D02*
X67097676Y-65190475D01*
X67097676Y-65190475D02*
X67002438Y-65095237D01*
X67002438Y-65095237D02*
X66954819Y-64952380D01*
X66954819Y-64952380D02*
X66954819Y-64857142D01*
X66954819Y-64857142D02*
X67002438Y-64714285D01*
X67002438Y-64714285D02*
X67050057Y-64666666D01*
X66954819Y-63761904D02*
X66954819Y-64238094D01*
X66954819Y-64238094D02*
X67431009Y-64285713D01*
X67431009Y-64285713D02*
X67383390Y-64238094D01*
X67383390Y-64238094D02*
X67335771Y-64142856D01*
X67335771Y-64142856D02*
X67335771Y-63904761D01*
X67335771Y-63904761D02*
X67383390Y-63809523D01*
X67383390Y-63809523D02*
X67431009Y-63761904D01*
X67431009Y-63761904D02*
X67526247Y-63714285D01*
X67526247Y-63714285D02*
X67764342Y-63714285D01*
X67764342Y-63714285D02*
X67859580Y-63761904D01*
X67859580Y-63761904D02*
X67907200Y-63809523D01*
X67907200Y-63809523D02*
X67954819Y-63904761D01*
X67954819Y-63904761D02*
X67954819Y-64142856D01*
X67954819Y-64142856D02*
X67907200Y-64238094D01*
X67907200Y-64238094D02*
X67859580Y-64285713D01*
X71083333Y-57609580D02*
X71035714Y-57657200D01*
X71035714Y-57657200D02*
X70892857Y-57704819D01*
X70892857Y-57704819D02*
X70797619Y-57704819D01*
X70797619Y-57704819D02*
X70654762Y-57657200D01*
X70654762Y-57657200D02*
X70559524Y-57561961D01*
X70559524Y-57561961D02*
X70511905Y-57466723D01*
X70511905Y-57466723D02*
X70464286Y-57276247D01*
X70464286Y-57276247D02*
X70464286Y-57133390D01*
X70464286Y-57133390D02*
X70511905Y-56942914D01*
X70511905Y-56942914D02*
X70559524Y-56847676D01*
X70559524Y-56847676D02*
X70654762Y-56752438D01*
X70654762Y-56752438D02*
X70797619Y-56704819D01*
X70797619Y-56704819D02*
X70892857Y-56704819D01*
X70892857Y-56704819D02*
X71035714Y-56752438D01*
X71035714Y-56752438D02*
X71083333Y-56800057D01*
X71464286Y-56800057D02*
X71511905Y-56752438D01*
X71511905Y-56752438D02*
X71607143Y-56704819D01*
X71607143Y-56704819D02*
X71845238Y-56704819D01*
X71845238Y-56704819D02*
X71940476Y-56752438D01*
X71940476Y-56752438D02*
X71988095Y-56800057D01*
X71988095Y-56800057D02*
X72035714Y-56895295D01*
X72035714Y-56895295D02*
X72035714Y-56990533D01*
X72035714Y-56990533D02*
X71988095Y-57133390D01*
X71988095Y-57133390D02*
X71416667Y-57704819D01*
X71416667Y-57704819D02*
X72035714Y-57704819D01*
X78833333Y-64454819D02*
X78500000Y-63978628D01*
X78261905Y-64454819D02*
X78261905Y-63454819D01*
X78261905Y-63454819D02*
X78642857Y-63454819D01*
X78642857Y-63454819D02*
X78738095Y-63502438D01*
X78738095Y-63502438D02*
X78785714Y-63550057D01*
X78785714Y-63550057D02*
X78833333Y-63645295D01*
X78833333Y-63645295D02*
X78833333Y-63788152D01*
X78833333Y-63788152D02*
X78785714Y-63883390D01*
X78785714Y-63883390D02*
X78738095Y-63931009D01*
X78738095Y-63931009D02*
X78642857Y-63978628D01*
X78642857Y-63978628D02*
X78261905Y-63978628D01*
X79214286Y-63550057D02*
X79261905Y-63502438D01*
X79261905Y-63502438D02*
X79357143Y-63454819D01*
X79357143Y-63454819D02*
X79595238Y-63454819D01*
X79595238Y-63454819D02*
X79690476Y-63502438D01*
X79690476Y-63502438D02*
X79738095Y-63550057D01*
X79738095Y-63550057D02*
X79785714Y-63645295D01*
X79785714Y-63645295D02*
X79785714Y-63740533D01*
X79785714Y-63740533D02*
X79738095Y-63883390D01*
X79738095Y-63883390D02*
X79166667Y-64454819D01*
X79166667Y-64454819D02*
X79785714Y-64454819D01*
X52488095Y-61204819D02*
X52488095Y-62014342D01*
X52488095Y-62014342D02*
X52535714Y-62109580D01*
X52535714Y-62109580D02*
X52583333Y-62157200D01*
X52583333Y-62157200D02*
X52678571Y-62204819D01*
X52678571Y-62204819D02*
X52869047Y-62204819D01*
X52869047Y-62204819D02*
X52964285Y-62157200D01*
X52964285Y-62157200D02*
X53011904Y-62109580D01*
X53011904Y-62109580D02*
X53059523Y-62014342D01*
X53059523Y-62014342D02*
X53059523Y-61204819D01*
X54059523Y-62204819D02*
X53488095Y-62204819D01*
X53773809Y-62204819D02*
X53773809Y-61204819D01*
X53773809Y-61204819D02*
X53678571Y-61347676D01*
X53678571Y-61347676D02*
X53583333Y-61442914D01*
X53583333Y-61442914D02*
X53488095Y-61490533D01*
X77904761Y-71550057D02*
X77809523Y-71502438D01*
X77809523Y-71502438D02*
X77714285Y-71407200D01*
X77714285Y-71407200D02*
X77571428Y-71264342D01*
X77571428Y-71264342D02*
X77476190Y-71216723D01*
X77476190Y-71216723D02*
X77380952Y-71216723D01*
X77428571Y-71454819D02*
X77333333Y-71407200D01*
X77333333Y-71407200D02*
X77238095Y-71311961D01*
X77238095Y-71311961D02*
X77190476Y-71121485D01*
X77190476Y-71121485D02*
X77190476Y-70788152D01*
X77190476Y-70788152D02*
X77238095Y-70597676D01*
X77238095Y-70597676D02*
X77333333Y-70502438D01*
X77333333Y-70502438D02*
X77428571Y-70454819D01*
X77428571Y-70454819D02*
X77619047Y-70454819D01*
X77619047Y-70454819D02*
X77714285Y-70502438D01*
X77714285Y-70502438D02*
X77809523Y-70597676D01*
X77809523Y-70597676D02*
X77857142Y-70788152D01*
X77857142Y-70788152D02*
X77857142Y-71121485D01*
X77857142Y-71121485D02*
X77809523Y-71311961D01*
X77809523Y-71311961D02*
X77714285Y-71407200D01*
X77714285Y-71407200D02*
X77619047Y-71454819D01*
X77619047Y-71454819D02*
X77428571Y-71454819D01*
X78809523Y-71454819D02*
X78238095Y-71454819D01*
X78523809Y-71454819D02*
X78523809Y-70454819D01*
X78523809Y-70454819D02*
X78428571Y-70597676D01*
X78428571Y-70597676D02*
X78333333Y-70692914D01*
X78333333Y-70692914D02*
X78238095Y-70740533D01*
X75583333Y-57609580D02*
X75535714Y-57657200D01*
X75535714Y-57657200D02*
X75392857Y-57704819D01*
X75392857Y-57704819D02*
X75297619Y-57704819D01*
X75297619Y-57704819D02*
X75154762Y-57657200D01*
X75154762Y-57657200D02*
X75059524Y-57561961D01*
X75059524Y-57561961D02*
X75011905Y-57466723D01*
X75011905Y-57466723D02*
X74964286Y-57276247D01*
X74964286Y-57276247D02*
X74964286Y-57133390D01*
X74964286Y-57133390D02*
X75011905Y-56942914D01*
X75011905Y-56942914D02*
X75059524Y-56847676D01*
X75059524Y-56847676D02*
X75154762Y-56752438D01*
X75154762Y-56752438D02*
X75297619Y-56704819D01*
X75297619Y-56704819D02*
X75392857Y-56704819D01*
X75392857Y-56704819D02*
X75535714Y-56752438D01*
X75535714Y-56752438D02*
X75583333Y-56800057D01*
X76535714Y-57704819D02*
X75964286Y-57704819D01*
X76250000Y-57704819D02*
X76250000Y-56704819D01*
X76250000Y-56704819D02*
X76154762Y-56847676D01*
X76154762Y-56847676D02*
X76059524Y-56942914D01*
X76059524Y-56942914D02*
X75964286Y-56990533D01*
X72206666Y-73954819D02*
X72206666Y-74669104D01*
X72206666Y-74669104D02*
X72159047Y-74811961D01*
X72159047Y-74811961D02*
X72063809Y-74907200D01*
X72063809Y-74907200D02*
X71920952Y-74954819D01*
X71920952Y-74954819D02*
X71825714Y-74954819D01*
X72635238Y-74050057D02*
X72682857Y-74002438D01*
X72682857Y-74002438D02*
X72778095Y-73954819D01*
X72778095Y-73954819D02*
X73016190Y-73954819D01*
X73016190Y-73954819D02*
X73111428Y-74002438D01*
X73111428Y-74002438D02*
X73159047Y-74050057D01*
X73159047Y-74050057D02*
X73206666Y-74145295D01*
X73206666Y-74145295D02*
X73206666Y-74240533D01*
X73206666Y-74240533D02*
X73159047Y-74383390D01*
X73159047Y-74383390D02*
X72587619Y-74954819D01*
X72587619Y-74954819D02*
X73206666Y-74954819D01*
X78833333Y-66954819D02*
X78500000Y-66478628D01*
X78261905Y-66954819D02*
X78261905Y-65954819D01*
X78261905Y-65954819D02*
X78642857Y-65954819D01*
X78642857Y-65954819D02*
X78738095Y-66002438D01*
X78738095Y-66002438D02*
X78785714Y-66050057D01*
X78785714Y-66050057D02*
X78833333Y-66145295D01*
X78833333Y-66145295D02*
X78833333Y-66288152D01*
X78833333Y-66288152D02*
X78785714Y-66383390D01*
X78785714Y-66383390D02*
X78738095Y-66431009D01*
X78738095Y-66431009D02*
X78642857Y-66478628D01*
X78642857Y-66478628D02*
X78261905Y-66478628D01*
X79785714Y-66954819D02*
X79214286Y-66954819D01*
X79500000Y-66954819D02*
X79500000Y-65954819D01*
X79500000Y-65954819D02*
X79404762Y-66097676D01*
X79404762Y-66097676D02*
X79309524Y-66192914D01*
X79309524Y-66192914D02*
X79214286Y-66240533D01*
X67859580Y-68791666D02*
X67907200Y-68839285D01*
X67907200Y-68839285D02*
X67954819Y-68982142D01*
X67954819Y-68982142D02*
X67954819Y-69077380D01*
X67954819Y-69077380D02*
X67907200Y-69220237D01*
X67907200Y-69220237D02*
X67811961Y-69315475D01*
X67811961Y-69315475D02*
X67716723Y-69363094D01*
X67716723Y-69363094D02*
X67526247Y-69410713D01*
X67526247Y-69410713D02*
X67383390Y-69410713D01*
X67383390Y-69410713D02*
X67192914Y-69363094D01*
X67192914Y-69363094D02*
X67097676Y-69315475D01*
X67097676Y-69315475D02*
X67002438Y-69220237D01*
X67002438Y-69220237D02*
X66954819Y-69077380D01*
X66954819Y-69077380D02*
X66954819Y-68982142D01*
X66954819Y-68982142D02*
X67002438Y-68839285D01*
X67002438Y-68839285D02*
X67050057Y-68791666D01*
X66954819Y-68458332D02*
X66954819Y-67839285D01*
X66954819Y-67839285D02*
X67335771Y-68172618D01*
X67335771Y-68172618D02*
X67335771Y-68029761D01*
X67335771Y-68029761D02*
X67383390Y-67934523D01*
X67383390Y-67934523D02*
X67431009Y-67886904D01*
X67431009Y-67886904D02*
X67526247Y-67839285D01*
X67526247Y-67839285D02*
X67764342Y-67839285D01*
X67764342Y-67839285D02*
X67859580Y-67886904D01*
X67859580Y-67886904D02*
X67907200Y-67934523D01*
X67907200Y-67934523D02*
X67954819Y-68029761D01*
X67954819Y-68029761D02*
X67954819Y-68315475D01*
X67954819Y-68315475D02*
X67907200Y-68410713D01*
X67907200Y-68410713D02*
X67859580Y-68458332D01*
X51316667Y-72384819D02*
X51650000Y-73384819D01*
X51650000Y-73384819D02*
X51983333Y-72384819D01*
X52888095Y-73289580D02*
X52840476Y-73337200D01*
X52840476Y-73337200D02*
X52697619Y-73384819D01*
X52697619Y-73384819D02*
X52602381Y-73384819D01*
X52602381Y-73384819D02*
X52459524Y-73337200D01*
X52459524Y-73337200D02*
X52364286Y-73241961D01*
X52364286Y-73241961D02*
X52316667Y-73146723D01*
X52316667Y-73146723D02*
X52269048Y-72956247D01*
X52269048Y-72956247D02*
X52269048Y-72813390D01*
X52269048Y-72813390D02*
X52316667Y-72622914D01*
X52316667Y-72622914D02*
X52364286Y-72527676D01*
X52364286Y-72527676D02*
X52459524Y-72432438D01*
X52459524Y-72432438D02*
X52602381Y-72384819D01*
X52602381Y-72384819D02*
X52697619Y-72384819D01*
X52697619Y-72384819D02*
X52840476Y-72432438D01*
X52840476Y-72432438D02*
X52888095Y-72480057D01*
X53888095Y-73289580D02*
X53840476Y-73337200D01*
X53840476Y-73337200D02*
X53697619Y-73384819D01*
X53697619Y-73384819D02*
X53602381Y-73384819D01*
X53602381Y-73384819D02*
X53459524Y-73337200D01*
X53459524Y-73337200D02*
X53364286Y-73241961D01*
X53364286Y-73241961D02*
X53316667Y-73146723D01*
X53316667Y-73146723D02*
X53269048Y-72956247D01*
X53269048Y-72956247D02*
X53269048Y-72813390D01*
X53269048Y-72813390D02*
X53316667Y-72622914D01*
X53316667Y-72622914D02*
X53364286Y-72527676D01*
X53364286Y-72527676D02*
X53459524Y-72432438D01*
X53459524Y-72432438D02*
X53602381Y-72384819D01*
X53602381Y-72384819D02*
X53697619Y-72384819D01*
X53697619Y-72384819D02*
X53840476Y-72432438D01*
X53840476Y-72432438D02*
X53888095Y-72480057D01*
X51921714Y-60754819D02*
X51350286Y-60754819D01*
X51636000Y-60754819D02*
X51636000Y-59754819D01*
X51636000Y-59754819D02*
X51540762Y-59897676D01*
X51540762Y-59897676D02*
X51445524Y-59992914D01*
X51445524Y-59992914D02*
X51350286Y-60040533D01*
X51888095Y-69932438D02*
X51792857Y-69884819D01*
X51792857Y-69884819D02*
X51650000Y-69884819D01*
X51650000Y-69884819D02*
X51507143Y-69932438D01*
X51507143Y-69932438D02*
X51411905Y-70027676D01*
X51411905Y-70027676D02*
X51364286Y-70122914D01*
X51364286Y-70122914D02*
X51316667Y-70313390D01*
X51316667Y-70313390D02*
X51316667Y-70456247D01*
X51316667Y-70456247D02*
X51364286Y-70646723D01*
X51364286Y-70646723D02*
X51411905Y-70741961D01*
X51411905Y-70741961D02*
X51507143Y-70837200D01*
X51507143Y-70837200D02*
X51650000Y-70884819D01*
X51650000Y-70884819D02*
X51745238Y-70884819D01*
X51745238Y-70884819D02*
X51888095Y-70837200D01*
X51888095Y-70837200D02*
X51935714Y-70789580D01*
X51935714Y-70789580D02*
X51935714Y-70456247D01*
X51935714Y-70456247D02*
X51745238Y-70456247D01*
X52364286Y-70884819D02*
X52364286Y-69884819D01*
X52364286Y-69884819D02*
X52935714Y-70884819D01*
X52935714Y-70884819D02*
X52935714Y-69884819D01*
X53411905Y-70884819D02*
X53411905Y-69884819D01*
X53411905Y-69884819D02*
X53650000Y-69884819D01*
X53650000Y-69884819D02*
X53792857Y-69932438D01*
X53792857Y-69932438D02*
X53888095Y-70027676D01*
X53888095Y-70027676D02*
X53935714Y-70122914D01*
X53935714Y-70122914D02*
X53983333Y-70313390D01*
X53983333Y-70313390D02*
X53983333Y-70456247D01*
X53983333Y-70456247D02*
X53935714Y-70646723D01*
X53935714Y-70646723D02*
X53888095Y-70741961D01*
X53888095Y-70741961D02*
X53792857Y-70837200D01*
X53792857Y-70837200D02*
X53650000Y-70884819D01*
X53650000Y-70884819D02*
X53411905Y-70884819D01*
D11*
%TO.C,C4*%
X55290000Y-70654437D02*
X55290000Y-71940000D01*
X55290000Y-70654437D02*
X56354437Y-69590000D01*
X55290000Y-75345563D02*
X55290000Y-74060000D01*
X55290000Y-75345563D02*
X56354437Y-76410000D01*
X56354437Y-69590000D02*
X62110000Y-69590000D01*
X56354437Y-76410000D02*
X62110000Y-76410000D01*
X62110000Y-69590000D02*
X62110000Y-71940000D01*
X62110000Y-76410000D02*
X62110000Y-74060000D01*
%TO.C,D1*%
X68350000Y-62490000D02*
X68350000Y-69900000D01*
X72650000Y-62490000D02*
X68350000Y-62490000D01*
X72650000Y-62490000D02*
X72650000Y-69900000D01*
%TO.C,C5*%
X64590000Y-63826248D02*
X64590000Y-65248752D01*
X66410000Y-63826248D02*
X66410000Y-65248752D01*
%TO.C,C2*%
X70160000Y-59101248D02*
X70160000Y-60523752D01*
X68340000Y-59101248D02*
X68340000Y-60523752D01*
%TO.C,R2*%
X74722936Y-63090000D02*
X76177064Y-63090000D01*
X74722936Y-64910000D02*
X76177064Y-64910000D01*
%TO.C,U1*%
X62552500Y-69330000D02*
X62072500Y-69330000D01*
X62312500Y-69000000D01*
X62552500Y-69330000D01*
G36*
X62552500Y-69330000D02*
G01*
X62072500Y-69330000D01*
X62312500Y-69000000D01*
X62552500Y-69330000D01*
G37*
D10*
X56062500Y-60600000D02*
X56062500Y-60825000D01*
X56062500Y-69250000D02*
X56062500Y-69025000D01*
X61812500Y-60600000D02*
X56062500Y-60600000D01*
X61812500Y-60600000D02*
X61812500Y-60825000D01*
X61812500Y-69250000D02*
X56062500Y-69250000D01*
X61812500Y-69250000D02*
X61812500Y-69025000D01*
D11*
%TO.C,Q1*%
X73420000Y-70240000D02*
X74350000Y-70240000D01*
X73420000Y-71040000D02*
X73420000Y-70240000D01*
X73420000Y-71040000D02*
X73420000Y-71840000D01*
X76580000Y-70240000D02*
X75650000Y-70240000D01*
X76580000Y-70240000D02*
X76580000Y-71700000D01*
X73390000Y-72340000D02*
X73060000Y-72580000D01*
X73060000Y-72100000D01*
X73390000Y-72340000D01*
G36*
X73390000Y-72340000D02*
G01*
X73060000Y-72580000D01*
X73060000Y-72100000D01*
X73390000Y-72340000D01*
G37*
%TO.C,C1*%
X72590000Y-59351248D02*
X72590000Y-60773752D01*
X74410000Y-59351248D02*
X74410000Y-60773752D01*
D12*
%TO.C,G\u002A\u002A\u002A*%
G36*
X79225109Y-57188311D02*
G01*
X79235378Y-57318440D01*
X79281589Y-57371712D01*
X79362555Y-57380736D01*
X79455504Y-57366359D01*
X79493555Y-57301663D01*
X79500000Y-57188311D01*
X79500000Y-56995887D01*
X79857360Y-56995887D01*
X80214719Y-56995887D01*
X80214719Y-57215801D01*
X80214719Y-57435714D01*
X80572078Y-57435714D01*
X80929438Y-57435714D01*
X80929438Y-57793073D01*
X80929438Y-58150433D01*
X80572078Y-58150433D01*
X80359857Y-58157179D01*
X80247990Y-58181723D01*
X80227461Y-58230522D01*
X80289253Y-58310030D01*
X80315260Y-58334336D01*
X80385103Y-58377080D01*
X80495450Y-58404579D01*
X80667614Y-58419654D01*
X80922908Y-58425126D01*
X81002490Y-58425324D01*
X81589178Y-58425324D01*
X81589178Y-58789321D01*
X81589178Y-59153317D01*
X80915693Y-59129490D01*
X80567845Y-59111284D01*
X80307497Y-59080075D01*
X80112342Y-59028628D01*
X79960076Y-58949706D01*
X79828392Y-58836074D01*
X79753566Y-58752492D01*
X79646376Y-58585060D01*
X79561493Y-58384882D01*
X79548066Y-58338180D01*
X79498393Y-58183291D01*
X79439222Y-58111302D01*
X79363055Y-58095454D01*
X79278082Y-58115383D01*
X79229730Y-58194327D01*
X79204226Y-58313933D01*
X79122666Y-58538672D01*
X78964826Y-58762702D01*
X78758685Y-58950378D01*
X78653419Y-59015705D01*
X78521579Y-59062192D01*
X78318637Y-59096169D01*
X78029737Y-59119636D01*
X77809416Y-59129490D01*
X77135931Y-59153317D01*
X77135931Y-58789321D01*
X77135931Y-58425324D01*
X77740693Y-58425324D01*
X78010102Y-58423499D01*
X78193019Y-58415369D01*
X78312883Y-58396955D01*
X78393136Y-58364275D01*
X78457215Y-58313350D01*
X78469156Y-58301623D01*
X78592858Y-58177922D01*
X78194265Y-58161769D01*
X77795671Y-58145616D01*
X77795671Y-57790665D01*
X77795671Y-57435714D01*
X78180520Y-57435714D01*
X78565368Y-57435714D01*
X78565368Y-57215801D01*
X78565368Y-56995887D01*
X78895239Y-56995887D01*
X79225109Y-56995887D01*
X79225109Y-57188311D01*
G37*
G36*
X81589178Y-59710679D02*
G01*
X81589178Y-60074675D01*
X80992937Y-60074675D01*
X80720620Y-60077229D01*
X80536250Y-60087028D01*
X80417892Y-60107284D01*
X80343608Y-60141204D01*
X80305708Y-60175216D01*
X80235743Y-60265903D01*
X80214719Y-60312662D01*
X80264873Y-60331458D01*
X80396096Y-60344750D01*
X80572078Y-60349567D01*
X80929438Y-60349567D01*
X80929438Y-60706926D01*
X80929438Y-61064285D01*
X80572078Y-61064285D01*
X80214719Y-61064285D01*
X80214719Y-61284199D01*
X80214719Y-61504112D01*
X79857360Y-61504112D01*
X79500000Y-61504112D01*
X79500000Y-61311688D01*
X79489731Y-61181559D01*
X79443520Y-61128287D01*
X79362555Y-61119264D01*
X79269606Y-61133640D01*
X79231554Y-61198336D01*
X79225109Y-61311688D01*
X79225109Y-61504112D01*
X78895239Y-61504112D01*
X78565368Y-61504112D01*
X78565368Y-61284199D01*
X78565368Y-61064285D01*
X78180520Y-61064285D01*
X77795671Y-61064285D01*
X77795671Y-60709335D01*
X77795671Y-60354384D01*
X78194265Y-60338231D01*
X78592858Y-60322078D01*
X78469156Y-60198376D01*
X78405499Y-60143643D01*
X78330001Y-60107892D01*
X78219223Y-60087140D01*
X78049725Y-60077410D01*
X77798067Y-60074719D01*
X77740693Y-60074675D01*
X77135931Y-60074675D01*
X77135931Y-59710679D01*
X77135931Y-59346683D01*
X77809416Y-59370510D01*
X78156906Y-59388643D01*
X78409539Y-59416086D01*
X78582174Y-59454840D01*
X78653419Y-59484295D01*
X78872565Y-59642679D01*
X79056516Y-59854117D01*
X79177293Y-60082962D01*
X79204226Y-60186066D01*
X79238589Y-60330291D01*
X79293431Y-60393297D01*
X79363055Y-60404545D01*
X79447378Y-60383638D01*
X79504370Y-60303226D01*
X79548066Y-60161820D01*
X79621342Y-59965412D01*
X79726460Y-59782524D01*
X79753566Y-59747507D01*
X79883509Y-59610717D01*
X80021249Y-59512785D01*
X80189091Y-59446474D01*
X80409342Y-59404550D01*
X80704307Y-59379776D01*
X80915693Y-59370510D01*
X81589178Y-59346683D01*
X81589178Y-59710679D01*
G37*
D11*
%TO.C,J2*%
X65670000Y-73170000D02*
X67000000Y-73170000D01*
X65670000Y-74500000D02*
X65670000Y-73170000D01*
X65670000Y-75770000D02*
X65670000Y-75830000D01*
X65670000Y-75770000D02*
X68270000Y-75770000D01*
X65670000Y-75830000D02*
X70870000Y-75830000D01*
X68270000Y-73170000D02*
X70870000Y-73170000D01*
X68270000Y-75770000D02*
X68270000Y-73170000D01*
X70870000Y-73170000D02*
X70870000Y-75830000D01*
%TO.C,R1*%
X74722936Y-65590000D02*
X76177064Y-65590000D01*
X74722936Y-67410000D02*
X76177064Y-67410000D01*
%TO.C,C3*%
X66410000Y-70273752D02*
X66410000Y-68851248D01*
X64590000Y-70273752D02*
X64590000Y-68851248D01*
%TO.C,J3*%
X52050000Y-59830000D02*
X52050000Y-58500000D01*
X53380000Y-59830000D02*
X52050000Y-59830000D01*
X54650000Y-57170000D02*
X67410000Y-57170000D01*
X54650000Y-59830000D02*
X54650000Y-57170000D01*
X54650000Y-59830000D02*
X67410000Y-59830000D01*
X67410000Y-59830000D02*
X67410000Y-57170000D01*
D13*
%TO.C,J1*%
X50620000Y-74270000D02*
X50620000Y-59030000D01*
X50620000Y-69190000D02*
X45540000Y-69190000D01*
X50620000Y-59030000D02*
X45540000Y-59030000D01*
X45540000Y-74270000D02*
X50620000Y-74270000D01*
X45540000Y-59030000D02*
X45540000Y-74270000D01*
%TD*%
D14*
%TO.C,J1*%
X46810000Y-73000000D03*
X46810000Y-70460000D03*
X46810000Y-67920000D03*
X46810000Y-65380000D03*
X46810000Y-62840000D03*
X46810000Y-60300000D03*
X49350000Y-73000000D03*
X49350000Y-70460000D03*
X49350000Y-67920000D03*
X49350000Y-65380000D03*
X49350000Y-62840000D03*
D15*
X49350000Y-60300000D03*
%TD*%
M02*
