%TF.GenerationSoftware,KiCad,Pcbnew,8.0.3*%
%TF.CreationDate,2024-07-02T09:17:33-05:00*%
%TF.ProjectId,Cartpole_HBridge,43617274-706f-46c6-955f-484272696467,rev?*%
%TF.SameCoordinates,Original*%
%TF.FileFunction,Copper,L2,Bot*%
%TF.FilePolarity,Positive*%
%FSLAX46Y46*%
G04 Gerber Fmt 4.6, Leading zero omitted, Abs format (unit mm)*
G04 Created by KiCad (PCBNEW 8.0.3) date 2024-07-02 09:17:33*
%MOMM*%
%LPD*%
G01*
G04 APERTURE LIST*
%TA.AperFunction,ComponentPad*%
%ADD10R,1.524000X1.524000*%
%TD*%
%TA.AperFunction,ComponentPad*%
%ADD11C,1.524000*%
%TD*%
%TA.AperFunction,ComponentPad*%
%ADD12R,1.700000X1.700000*%
%TD*%
%TA.AperFunction,ComponentPad*%
%ADD13O,1.700000X1.700000*%
%TD*%
%TA.AperFunction,ViaPad*%
%ADD14C,0.600000*%
%TD*%
%TA.AperFunction,Conductor*%
%ADD15C,0.200000*%
%TD*%
G04 APERTURE END LIST*
D10*
%TO.P,J1,1,Pin_1*%
%TO.N,Net-(J1-Pin_1)*%
X49350000Y-60300000D03*
D11*
%TO.P,J1,2,Pin_2*%
%TO.N,Net-(J1-Pin_2)*%
X49350000Y-62840000D03*
%TO.P,J1,3,Pin_3*%
%TO.N,Net-(J1-Pin_3)*%
X49350000Y-65380000D03*
%TO.P,J1,4,Pin_4*%
%TO.N,Net-(J1-Pin_4)*%
X49350000Y-67920000D03*
%TO.P,J1,5,Pin_5*%
%TO.N,GND*%
X49350000Y-70460000D03*
%TO.P,J1,6,Pin_6*%
%TO.N,VCC*%
X49350000Y-73000000D03*
%TO.P,J1,7,Pin_7*%
%TO.N,unconnected-(J1-Pin_7-Pad7)*%
X46810000Y-60300000D03*
%TO.P,J1,8,Pin_8*%
%TO.N,unconnected-(J1-Pin_8-Pad8)*%
X46810000Y-62840000D03*
%TO.P,J1,9,Pin_9*%
%TO.N,Net-(J1-Pin_9)*%
X46810000Y-65380000D03*
%TO.P,J1,10,Pin_10*%
%TO.N,Net-(J1-Pin_10)*%
X46810000Y-67920000D03*
%TO.P,J1,11,Pin_11*%
%TO.N,unconnected-(J1-Pin_11-Pad11)*%
X46810000Y-70460000D03*
%TO.P,J1,12,Pin_12*%
%TO.N,unconnected-(J1-Pin_12-Pad12)*%
X46810000Y-73000000D03*
%TD*%
D12*
%TO.P,J2,1*%
%TO.N,Net-(Q1-D)*%
X67000000Y-74500000D03*
D13*
%TO.P,J2,2*%
%TO.N,GND*%
X69540000Y-74500000D03*
%TD*%
D12*
%TO.P,J3,1,Pin_1*%
%TO.N,Net-(J1-Pin_10)*%
X53380000Y-58500000D03*
D13*
%TO.P,J3,2,Pin_2*%
%TO.N,Net-(J1-Pin_9)*%
X55920000Y-58500000D03*
%TO.P,J3,3,Pin_3*%
%TO.N,VCC*%
X58460000Y-58500000D03*
%TO.P,J3,4,Pin_4*%
%TO.N,GND*%
X61000000Y-58500000D03*
%TO.P,J3,5,Pin_5*%
%TO.N,Net-(J3-Pin_5)*%
X63540000Y-58500000D03*
%TO.P,J3,6,Pin_6*%
%TO.N,Net-(J3-Pin_6)*%
X66080000Y-58500000D03*
%TD*%
D14*
%TO.N,GND*%
X60000000Y-62250000D03*
X64000000Y-73000000D03*
X52500000Y-63750000D03*
%TO.N,VCC*%
X65000000Y-61750000D03*
X53500000Y-67750000D03*
%TD*%
D15*
%TO.N,GND*%
X60000000Y-59810000D02*
X60405000Y-59405000D01*
X52500000Y-63750000D02*
X52500000Y-67310000D01*
X68390000Y-73350000D02*
X66600000Y-73350000D01*
X64000000Y-61500000D02*
X61000000Y-58500000D01*
X52500000Y-67310000D02*
X49350000Y-70460000D01*
X60000000Y-62250000D02*
X60000000Y-59810000D01*
X64000000Y-73000000D02*
X64000000Y-70750000D01*
X66600000Y-73350000D02*
X64000000Y-70750000D01*
X64000000Y-70750000D02*
X64000000Y-61500000D01*
X60405000Y-59405000D02*
X49350000Y-70460000D01*
X69540000Y-74500000D02*
X68390000Y-73350000D01*
X60960000Y-58850000D02*
X60405000Y-59405000D01*
%TO.N,VCC*%
X55600000Y-59650000D02*
X57310000Y-59650000D01*
X57310000Y-59650000D02*
X58460000Y-58500000D01*
X48288000Y-69604105D02*
X48910105Y-68982000D01*
X51500000Y-67271895D02*
X51500000Y-63750000D01*
X53500000Y-68850000D02*
X53500000Y-67750000D01*
X49350000Y-73000000D02*
X48288000Y-71938000D01*
X62336827Y-59086827D02*
X65000000Y-61750000D01*
X61476346Y-57350000D02*
X62336827Y-58210481D01*
X51500000Y-63750000D02*
X55600000Y-59650000D01*
X49789895Y-68982000D02*
X51500000Y-67271895D01*
X62336827Y-58210481D02*
X62336827Y-59086827D01*
X49350000Y-73000000D02*
X53500000Y-68850000D01*
X58460000Y-58500000D02*
X59610000Y-57350000D01*
X48288000Y-71938000D02*
X48288000Y-69604105D01*
X59610000Y-57350000D02*
X61476346Y-57350000D01*
X48910105Y-68982000D02*
X49789895Y-68982000D01*
%TD*%
M02*
