M48
; DRILL file {KiCad 8.0.3} date 2024-07-01T13:38:03-0500
; FORMAT={-:-/ absolute / inch / decimal}
; #@! TF.CreationDate,2024-07-01T13:38:03-05:00
; #@! TF.GenerationSoftware,Kicad,Pcbnew,8.0.3
; #@! TF.FileFunction,Plated,1,2,PTH
FMAT,2
INCH
; #@! TA.AperFunction,Plated,PTH,ComponentDrill
T1C0.0394
; #@! TA.AperFunction,Plated,PTH,ComponentDrill
T2C0.0400
%
G90
G05
T1
X2.1Y-2.2441
X2.2Y-2.2441
X2.2819Y-2.8937
X2.3Y-2.2441
X2.3819Y-2.8937
X2.4Y-2.2441
X2.5Y-2.2441
X2.6Y-2.2441
T2
X1.8291Y-2.3374
X1.8291Y-2.4374
X1.8291Y-2.5374
X1.8291Y-2.6374
X1.8291Y-2.7374
X1.8291Y-2.8374
X1.9291Y-2.3374
X1.9291Y-2.4374
X1.9291Y-2.5374
X1.9291Y-2.6374
X1.9291Y-2.7374
X1.9291Y-2.8374
M30
