%TF.GenerationSoftware,KiCad,Pcbnew,8.0.3*%
%TF.CreationDate,2024-07-01T17:30:08-05:00*%
%TF.ProjectId,Cartpole_HBridge,43617274-706f-46c6-955f-484272696467,rev?*%
%TF.SameCoordinates,Original*%
%TF.FileFunction,Legend,Top*%
%TF.FilePolarity,Positive*%
%FSLAX46Y46*%
G04 Gerber Fmt 4.6, Leading zero omitted, Abs format (unit mm)*
G04 Created by KiCad (PCBNEW 8.0.3) date 2024-07-01 17:30:08*
%MOMM*%
%LPD*%
G01*
G04 APERTURE LIST*
%ADD10C,0.150000*%
%ADD11C,0.120000*%
%ADD12C,0.000000*%
%ADD13C,0.304800*%
%ADD14C,1.524000*%
%ADD15R,1.524000X1.524000*%
G04 APERTURE END LIST*
D10*
X63333333Y-74859580D02*
X63285714Y-74907200D01*
X63285714Y-74907200D02*
X63142857Y-74954819D01*
X63142857Y-74954819D02*
X63047619Y-74954819D01*
X63047619Y-74954819D02*
X62904762Y-74907200D01*
X62904762Y-74907200D02*
X62809524Y-74811961D01*
X62809524Y-74811961D02*
X62761905Y-74716723D01*
X62761905Y-74716723D02*
X62714286Y-74526247D01*
X62714286Y-74526247D02*
X62714286Y-74383390D01*
X62714286Y-74383390D02*
X62761905Y-74192914D01*
X62761905Y-74192914D02*
X62809524Y-74097676D01*
X62809524Y-74097676D02*
X62904762Y-74002438D01*
X62904762Y-74002438D02*
X63047619Y-73954819D01*
X63047619Y-73954819D02*
X63142857Y-73954819D01*
X63142857Y-73954819D02*
X63285714Y-74002438D01*
X63285714Y-74002438D02*
X63333333Y-74050057D01*
X64190476Y-74288152D02*
X64190476Y-74954819D01*
X63952381Y-73907200D02*
X63714286Y-74621485D01*
X63714286Y-74621485D02*
X64333333Y-74621485D01*
X74204819Y-64738094D02*
X73204819Y-64738094D01*
X73204819Y-64738094D02*
X73204819Y-64499999D01*
X73204819Y-64499999D02*
X73252438Y-64357142D01*
X73252438Y-64357142D02*
X73347676Y-64261904D01*
X73347676Y-64261904D02*
X73442914Y-64214285D01*
X73442914Y-64214285D02*
X73633390Y-64166666D01*
X73633390Y-64166666D02*
X73776247Y-64166666D01*
X73776247Y-64166666D02*
X73966723Y-64214285D01*
X73966723Y-64214285D02*
X74061961Y-64261904D01*
X74061961Y-64261904D02*
X74157200Y-64357142D01*
X74157200Y-64357142D02*
X74204819Y-64499999D01*
X74204819Y-64499999D02*
X74204819Y-64738094D01*
X74204819Y-63214285D02*
X74204819Y-63785713D01*
X74204819Y-63499999D02*
X73204819Y-63499999D01*
X73204819Y-63499999D02*
X73347676Y-63595237D01*
X73347676Y-63595237D02*
X73442914Y-63690475D01*
X73442914Y-63690475D02*
X73490533Y-63785713D01*
X67859580Y-64666666D02*
X67907200Y-64714285D01*
X67907200Y-64714285D02*
X67954819Y-64857142D01*
X67954819Y-64857142D02*
X67954819Y-64952380D01*
X67954819Y-64952380D02*
X67907200Y-65095237D01*
X67907200Y-65095237D02*
X67811961Y-65190475D01*
X67811961Y-65190475D02*
X67716723Y-65238094D01*
X67716723Y-65238094D02*
X67526247Y-65285713D01*
X67526247Y-65285713D02*
X67383390Y-65285713D01*
X67383390Y-65285713D02*
X67192914Y-65238094D01*
X67192914Y-65238094D02*
X67097676Y-65190475D01*
X67097676Y-65190475D02*
X67002438Y-65095237D01*
X67002438Y-65095237D02*
X66954819Y-64952380D01*
X66954819Y-64952380D02*
X66954819Y-64857142D01*
X66954819Y-64857142D02*
X67002438Y-64714285D01*
X67002438Y-64714285D02*
X67050057Y-64666666D01*
X66954819Y-63761904D02*
X66954819Y-64238094D01*
X66954819Y-64238094D02*
X67431009Y-64285713D01*
X67431009Y-64285713D02*
X67383390Y-64238094D01*
X67383390Y-64238094D02*
X67335771Y-64142856D01*
X67335771Y-64142856D02*
X67335771Y-63904761D01*
X67335771Y-63904761D02*
X67383390Y-63809523D01*
X67383390Y-63809523D02*
X67431009Y-63761904D01*
X67431009Y-63761904D02*
X67526247Y-63714285D01*
X67526247Y-63714285D02*
X67764342Y-63714285D01*
X67764342Y-63714285D02*
X67859580Y-63761904D01*
X67859580Y-63761904D02*
X67907200Y-63809523D01*
X67907200Y-63809523D02*
X67954819Y-63904761D01*
X67954819Y-63904761D02*
X67954819Y-64142856D01*
X67954819Y-64142856D02*
X67907200Y-64238094D01*
X67907200Y-64238094D02*
X67859580Y-64285713D01*
X73833333Y-61359580D02*
X73785714Y-61407200D01*
X73785714Y-61407200D02*
X73642857Y-61454819D01*
X73642857Y-61454819D02*
X73547619Y-61454819D01*
X73547619Y-61454819D02*
X73404762Y-61407200D01*
X73404762Y-61407200D02*
X73309524Y-61311961D01*
X73309524Y-61311961D02*
X73261905Y-61216723D01*
X73261905Y-61216723D02*
X73214286Y-61026247D01*
X73214286Y-61026247D02*
X73214286Y-60883390D01*
X73214286Y-60883390D02*
X73261905Y-60692914D01*
X73261905Y-60692914D02*
X73309524Y-60597676D01*
X73309524Y-60597676D02*
X73404762Y-60502438D01*
X73404762Y-60502438D02*
X73547619Y-60454819D01*
X73547619Y-60454819D02*
X73642857Y-60454819D01*
X73642857Y-60454819D02*
X73785714Y-60502438D01*
X73785714Y-60502438D02*
X73833333Y-60550057D01*
X74214286Y-60550057D02*
X74261905Y-60502438D01*
X74261905Y-60502438D02*
X74357143Y-60454819D01*
X74357143Y-60454819D02*
X74595238Y-60454819D01*
X74595238Y-60454819D02*
X74690476Y-60502438D01*
X74690476Y-60502438D02*
X74738095Y-60550057D01*
X74738095Y-60550057D02*
X74785714Y-60645295D01*
X74785714Y-60645295D02*
X74785714Y-60740533D01*
X74785714Y-60740533D02*
X74738095Y-60883390D01*
X74738095Y-60883390D02*
X74166667Y-61454819D01*
X74166667Y-61454819D02*
X74785714Y-61454819D01*
X78833333Y-66954819D02*
X78500000Y-66478628D01*
X78261905Y-66954819D02*
X78261905Y-65954819D01*
X78261905Y-65954819D02*
X78642857Y-65954819D01*
X78642857Y-65954819D02*
X78738095Y-66002438D01*
X78738095Y-66002438D02*
X78785714Y-66050057D01*
X78785714Y-66050057D02*
X78833333Y-66145295D01*
X78833333Y-66145295D02*
X78833333Y-66288152D01*
X78833333Y-66288152D02*
X78785714Y-66383390D01*
X78785714Y-66383390D02*
X78738095Y-66431009D01*
X78738095Y-66431009D02*
X78642857Y-66478628D01*
X78642857Y-66478628D02*
X78261905Y-66478628D01*
X79214286Y-66050057D02*
X79261905Y-66002438D01*
X79261905Y-66002438D02*
X79357143Y-65954819D01*
X79357143Y-65954819D02*
X79595238Y-65954819D01*
X79595238Y-65954819D02*
X79690476Y-66002438D01*
X79690476Y-66002438D02*
X79738095Y-66050057D01*
X79738095Y-66050057D02*
X79785714Y-66145295D01*
X79785714Y-66145295D02*
X79785714Y-66240533D01*
X79785714Y-66240533D02*
X79738095Y-66383390D01*
X79738095Y-66383390D02*
X79166667Y-66954819D01*
X79166667Y-66954819D02*
X79785714Y-66954819D01*
X58175595Y-64379819D02*
X58175595Y-65189342D01*
X58175595Y-65189342D02*
X58223214Y-65284580D01*
X58223214Y-65284580D02*
X58270833Y-65332200D01*
X58270833Y-65332200D02*
X58366071Y-65379819D01*
X58366071Y-65379819D02*
X58556547Y-65379819D01*
X58556547Y-65379819D02*
X58651785Y-65332200D01*
X58651785Y-65332200D02*
X58699404Y-65284580D01*
X58699404Y-65284580D02*
X58747023Y-65189342D01*
X58747023Y-65189342D02*
X58747023Y-64379819D01*
X59747023Y-65379819D02*
X59175595Y-65379819D01*
X59461309Y-65379819D02*
X59461309Y-64379819D01*
X59461309Y-64379819D02*
X59366071Y-64522676D01*
X59366071Y-64522676D02*
X59270833Y-64617914D01*
X59270833Y-64617914D02*
X59175595Y-64665533D01*
X78204761Y-73550057D02*
X78109523Y-73502438D01*
X78109523Y-73502438D02*
X78014285Y-73407200D01*
X78014285Y-73407200D02*
X77871428Y-73264342D01*
X77871428Y-73264342D02*
X77776190Y-73216723D01*
X77776190Y-73216723D02*
X77680952Y-73216723D01*
X77728571Y-73454819D02*
X77633333Y-73407200D01*
X77633333Y-73407200D02*
X77538095Y-73311961D01*
X77538095Y-73311961D02*
X77490476Y-73121485D01*
X77490476Y-73121485D02*
X77490476Y-72788152D01*
X77490476Y-72788152D02*
X77538095Y-72597676D01*
X77538095Y-72597676D02*
X77633333Y-72502438D01*
X77633333Y-72502438D02*
X77728571Y-72454819D01*
X77728571Y-72454819D02*
X77919047Y-72454819D01*
X77919047Y-72454819D02*
X78014285Y-72502438D01*
X78014285Y-72502438D02*
X78109523Y-72597676D01*
X78109523Y-72597676D02*
X78157142Y-72788152D01*
X78157142Y-72788152D02*
X78157142Y-73121485D01*
X78157142Y-73121485D02*
X78109523Y-73311961D01*
X78109523Y-73311961D02*
X78014285Y-73407200D01*
X78014285Y-73407200D02*
X77919047Y-73454819D01*
X77919047Y-73454819D02*
X77728571Y-73454819D01*
X79109523Y-73454819D02*
X78538095Y-73454819D01*
X78823809Y-73454819D02*
X78823809Y-72454819D01*
X78823809Y-72454819D02*
X78728571Y-72597676D01*
X78728571Y-72597676D02*
X78633333Y-72692914D01*
X78633333Y-72692914D02*
X78538095Y-72740533D01*
X73833333Y-58359580D02*
X73785714Y-58407200D01*
X73785714Y-58407200D02*
X73642857Y-58454819D01*
X73642857Y-58454819D02*
X73547619Y-58454819D01*
X73547619Y-58454819D02*
X73404762Y-58407200D01*
X73404762Y-58407200D02*
X73309524Y-58311961D01*
X73309524Y-58311961D02*
X73261905Y-58216723D01*
X73261905Y-58216723D02*
X73214286Y-58026247D01*
X73214286Y-58026247D02*
X73214286Y-57883390D01*
X73214286Y-57883390D02*
X73261905Y-57692914D01*
X73261905Y-57692914D02*
X73309524Y-57597676D01*
X73309524Y-57597676D02*
X73404762Y-57502438D01*
X73404762Y-57502438D02*
X73547619Y-57454819D01*
X73547619Y-57454819D02*
X73642857Y-57454819D01*
X73642857Y-57454819D02*
X73785714Y-57502438D01*
X73785714Y-57502438D02*
X73833333Y-57550057D01*
X74785714Y-58454819D02*
X74214286Y-58454819D01*
X74500000Y-58454819D02*
X74500000Y-57454819D01*
X74500000Y-57454819D02*
X74404762Y-57597676D01*
X74404762Y-57597676D02*
X74309524Y-57692914D01*
X74309524Y-57692914D02*
X74214286Y-57740533D01*
X71916666Y-74204819D02*
X71916666Y-74919104D01*
X71916666Y-74919104D02*
X71869047Y-75061961D01*
X71869047Y-75061961D02*
X71773809Y-75157200D01*
X71773809Y-75157200D02*
X71630952Y-75204819D01*
X71630952Y-75204819D02*
X71535714Y-75204819D01*
X72345238Y-74300057D02*
X72392857Y-74252438D01*
X72392857Y-74252438D02*
X72488095Y-74204819D01*
X72488095Y-74204819D02*
X72726190Y-74204819D01*
X72726190Y-74204819D02*
X72821428Y-74252438D01*
X72821428Y-74252438D02*
X72869047Y-74300057D01*
X72869047Y-74300057D02*
X72916666Y-74395295D01*
X72916666Y-74395295D02*
X72916666Y-74490533D01*
X72916666Y-74490533D02*
X72869047Y-74633390D01*
X72869047Y-74633390D02*
X72297619Y-75204819D01*
X72297619Y-75204819D02*
X72916666Y-75204819D01*
X78833333Y-69454819D02*
X78500000Y-68978628D01*
X78261905Y-69454819D02*
X78261905Y-68454819D01*
X78261905Y-68454819D02*
X78642857Y-68454819D01*
X78642857Y-68454819D02*
X78738095Y-68502438D01*
X78738095Y-68502438D02*
X78785714Y-68550057D01*
X78785714Y-68550057D02*
X78833333Y-68645295D01*
X78833333Y-68645295D02*
X78833333Y-68788152D01*
X78833333Y-68788152D02*
X78785714Y-68883390D01*
X78785714Y-68883390D02*
X78738095Y-68931009D01*
X78738095Y-68931009D02*
X78642857Y-68978628D01*
X78642857Y-68978628D02*
X78261905Y-68978628D01*
X79785714Y-69454819D02*
X79214286Y-69454819D01*
X79500000Y-69454819D02*
X79500000Y-68454819D01*
X79500000Y-68454819D02*
X79404762Y-68597676D01*
X79404762Y-68597676D02*
X79309524Y-68692914D01*
X79309524Y-68692914D02*
X79214286Y-68740533D01*
X67859580Y-69916666D02*
X67907200Y-69964285D01*
X67907200Y-69964285D02*
X67954819Y-70107142D01*
X67954819Y-70107142D02*
X67954819Y-70202380D01*
X67954819Y-70202380D02*
X67907200Y-70345237D01*
X67907200Y-70345237D02*
X67811961Y-70440475D01*
X67811961Y-70440475D02*
X67716723Y-70488094D01*
X67716723Y-70488094D02*
X67526247Y-70535713D01*
X67526247Y-70535713D02*
X67383390Y-70535713D01*
X67383390Y-70535713D02*
X67192914Y-70488094D01*
X67192914Y-70488094D02*
X67097676Y-70440475D01*
X67097676Y-70440475D02*
X67002438Y-70345237D01*
X67002438Y-70345237D02*
X66954819Y-70202380D01*
X66954819Y-70202380D02*
X66954819Y-70107142D01*
X66954819Y-70107142D02*
X67002438Y-69964285D01*
X67002438Y-69964285D02*
X67050057Y-69916666D01*
X66954819Y-69583332D02*
X66954819Y-68964285D01*
X66954819Y-68964285D02*
X67335771Y-69297618D01*
X67335771Y-69297618D02*
X67335771Y-69154761D01*
X67335771Y-69154761D02*
X67383390Y-69059523D01*
X67383390Y-69059523D02*
X67431009Y-69011904D01*
X67431009Y-69011904D02*
X67526247Y-68964285D01*
X67526247Y-68964285D02*
X67764342Y-68964285D01*
X67764342Y-68964285D02*
X67859580Y-69011904D01*
X67859580Y-69011904D02*
X67907200Y-69059523D01*
X67907200Y-69059523D02*
X67954819Y-69154761D01*
X67954819Y-69154761D02*
X67954819Y-69440475D01*
X67954819Y-69440475D02*
X67907200Y-69535713D01*
X67907200Y-69535713D02*
X67859580Y-69583332D01*
X51316667Y-72384819D02*
X51650000Y-73384819D01*
X51650000Y-73384819D02*
X51983333Y-72384819D01*
X52888095Y-73289580D02*
X52840476Y-73337200D01*
X52840476Y-73337200D02*
X52697619Y-73384819D01*
X52697619Y-73384819D02*
X52602381Y-73384819D01*
X52602381Y-73384819D02*
X52459524Y-73337200D01*
X52459524Y-73337200D02*
X52364286Y-73241961D01*
X52364286Y-73241961D02*
X52316667Y-73146723D01*
X52316667Y-73146723D02*
X52269048Y-72956247D01*
X52269048Y-72956247D02*
X52269048Y-72813390D01*
X52269048Y-72813390D02*
X52316667Y-72622914D01*
X52316667Y-72622914D02*
X52364286Y-72527676D01*
X52364286Y-72527676D02*
X52459524Y-72432438D01*
X52459524Y-72432438D02*
X52602381Y-72384819D01*
X52602381Y-72384819D02*
X52697619Y-72384819D01*
X52697619Y-72384819D02*
X52840476Y-72432438D01*
X52840476Y-72432438D02*
X52888095Y-72480057D01*
X53888095Y-73289580D02*
X53840476Y-73337200D01*
X53840476Y-73337200D02*
X53697619Y-73384819D01*
X53697619Y-73384819D02*
X53602381Y-73384819D01*
X53602381Y-73384819D02*
X53459524Y-73337200D01*
X53459524Y-73337200D02*
X53364286Y-73241961D01*
X53364286Y-73241961D02*
X53316667Y-73146723D01*
X53316667Y-73146723D02*
X53269048Y-72956247D01*
X53269048Y-72956247D02*
X53269048Y-72813390D01*
X53269048Y-72813390D02*
X53316667Y-72622914D01*
X53316667Y-72622914D02*
X53364286Y-72527676D01*
X53364286Y-72527676D02*
X53459524Y-72432438D01*
X53459524Y-72432438D02*
X53602381Y-72384819D01*
X53602381Y-72384819D02*
X53697619Y-72384819D01*
X53697619Y-72384819D02*
X53840476Y-72432438D01*
X53840476Y-72432438D02*
X53888095Y-72480057D01*
X51921714Y-60754819D02*
X51350286Y-60754819D01*
X51636000Y-60754819D02*
X51636000Y-59754819D01*
X51636000Y-59754819D02*
X51540762Y-59897676D01*
X51540762Y-59897676D02*
X51445524Y-59992914D01*
X51445524Y-59992914D02*
X51350286Y-60040533D01*
X51888095Y-69932438D02*
X51792857Y-69884819D01*
X51792857Y-69884819D02*
X51650000Y-69884819D01*
X51650000Y-69884819D02*
X51507143Y-69932438D01*
X51507143Y-69932438D02*
X51411905Y-70027676D01*
X51411905Y-70027676D02*
X51364286Y-70122914D01*
X51364286Y-70122914D02*
X51316667Y-70313390D01*
X51316667Y-70313390D02*
X51316667Y-70456247D01*
X51316667Y-70456247D02*
X51364286Y-70646723D01*
X51364286Y-70646723D02*
X51411905Y-70741961D01*
X51411905Y-70741961D02*
X51507143Y-70837200D01*
X51507143Y-70837200D02*
X51650000Y-70884819D01*
X51650000Y-70884819D02*
X51745238Y-70884819D01*
X51745238Y-70884819D02*
X51888095Y-70837200D01*
X51888095Y-70837200D02*
X51935714Y-70789580D01*
X51935714Y-70789580D02*
X51935714Y-70456247D01*
X51935714Y-70456247D02*
X51745238Y-70456247D01*
X52364286Y-70884819D02*
X52364286Y-69884819D01*
X52364286Y-69884819D02*
X52935714Y-70884819D01*
X52935714Y-70884819D02*
X52935714Y-69884819D01*
X53411905Y-70884819D02*
X53411905Y-69884819D01*
X53411905Y-69884819D02*
X53650000Y-69884819D01*
X53650000Y-69884819D02*
X53792857Y-69932438D01*
X53792857Y-69932438D02*
X53888095Y-70027676D01*
X53888095Y-70027676D02*
X53935714Y-70122914D01*
X53935714Y-70122914D02*
X53983333Y-70313390D01*
X53983333Y-70313390D02*
X53983333Y-70456247D01*
X53983333Y-70456247D02*
X53935714Y-70646723D01*
X53935714Y-70646723D02*
X53888095Y-70741961D01*
X53888095Y-70741961D02*
X53792857Y-70837200D01*
X53792857Y-70837200D02*
X53650000Y-70884819D01*
X53650000Y-70884819D02*
X53411905Y-70884819D01*
D11*
%TO.C,C4*%
X55290000Y-70654437D02*
X55290000Y-71940000D01*
X55290000Y-70654437D02*
X56354437Y-69590000D01*
X55290000Y-75345563D02*
X55290000Y-74060000D01*
X55290000Y-75345563D02*
X56354437Y-76410000D01*
X56354437Y-69590000D02*
X62110000Y-69590000D01*
X56354437Y-76410000D02*
X62110000Y-76410000D01*
X62110000Y-69590000D02*
X62110000Y-71940000D01*
X62110000Y-76410000D02*
X62110000Y-74060000D01*
%TO.C,D1*%
X68350000Y-62490000D02*
X68350000Y-69900000D01*
X72650000Y-62490000D02*
X68350000Y-62490000D01*
X72650000Y-62490000D02*
X72650000Y-69900000D01*
%TO.C,C5*%
X64590000Y-63826248D02*
X64590000Y-65248752D01*
X66410000Y-63826248D02*
X66410000Y-65248752D01*
%TO.C,C2*%
X69976248Y-60340000D02*
X71398752Y-60340000D01*
X69976248Y-62160000D02*
X71398752Y-62160000D01*
%TO.C,R2*%
X74722936Y-65590000D02*
X76177064Y-65590000D01*
X74722936Y-67410000D02*
X76177064Y-67410000D01*
%TO.C,U1*%
X62552500Y-69330000D02*
X62072500Y-69330000D01*
X62312500Y-69000000D01*
X62552500Y-69330000D01*
G36*
X62552500Y-69330000D02*
G01*
X62072500Y-69330000D01*
X62312500Y-69000000D01*
X62552500Y-69330000D01*
G37*
D10*
X56062500Y-60600000D02*
X56062500Y-60825000D01*
X56062500Y-69250000D02*
X56062500Y-69025000D01*
X61812500Y-60600000D02*
X56062500Y-60600000D01*
X61812500Y-60600000D02*
X61812500Y-60825000D01*
X61812500Y-69250000D02*
X56062500Y-69250000D01*
X61812500Y-69250000D02*
X61812500Y-69025000D01*
D11*
%TO.C,Q1*%
X73720000Y-72240000D02*
X74650000Y-72240000D01*
X73720000Y-73040000D02*
X73720000Y-72240000D01*
X73720000Y-73040000D02*
X73720000Y-73840000D01*
X76880000Y-72240000D02*
X75950000Y-72240000D01*
X76880000Y-72240000D02*
X76880000Y-73700000D01*
X73690000Y-74340000D02*
X73360000Y-74580000D01*
X73360000Y-74100000D01*
X73690000Y-74340000D01*
G36*
X73690000Y-74340000D02*
G01*
X73360000Y-74580000D01*
X73360000Y-74100000D01*
X73690000Y-74340000D01*
G37*
%TO.C,C1*%
X69788748Y-59160000D02*
X71211252Y-59160000D01*
X69788748Y-57340000D02*
X71211252Y-57340000D01*
D12*
%TO.C,G\u002A\u002A\u002A*%
G36*
X77225109Y-57438311D02*
G01*
X77235378Y-57568440D01*
X77281589Y-57621712D01*
X77362555Y-57630736D01*
X77455504Y-57616359D01*
X77493555Y-57551663D01*
X77500000Y-57438311D01*
X77500000Y-57245887D01*
X77857360Y-57245887D01*
X78214719Y-57245887D01*
X78214719Y-57465801D01*
X78214719Y-57685714D01*
X78572078Y-57685714D01*
X78929438Y-57685714D01*
X78929438Y-58043073D01*
X78929438Y-58400433D01*
X78572078Y-58400433D01*
X78359857Y-58407179D01*
X78247990Y-58431723D01*
X78227461Y-58480522D01*
X78289253Y-58560030D01*
X78315260Y-58584336D01*
X78385103Y-58627080D01*
X78495450Y-58654579D01*
X78667614Y-58669654D01*
X78922908Y-58675126D01*
X79002490Y-58675324D01*
X79589178Y-58675324D01*
X79589178Y-59039321D01*
X79589178Y-59403317D01*
X78915693Y-59379490D01*
X78567845Y-59361284D01*
X78307497Y-59330075D01*
X78112342Y-59278628D01*
X77960076Y-59199706D01*
X77828392Y-59086074D01*
X77753566Y-59002492D01*
X77646376Y-58835060D01*
X77561493Y-58634882D01*
X77548066Y-58588180D01*
X77498393Y-58433291D01*
X77439222Y-58361302D01*
X77363055Y-58345454D01*
X77278082Y-58365383D01*
X77229730Y-58444327D01*
X77204226Y-58563933D01*
X77122666Y-58788672D01*
X76964826Y-59012702D01*
X76758685Y-59200378D01*
X76653419Y-59265705D01*
X76521579Y-59312192D01*
X76318637Y-59346169D01*
X76029737Y-59369636D01*
X75809416Y-59379490D01*
X75135931Y-59403317D01*
X75135931Y-59039321D01*
X75135931Y-58675324D01*
X75740693Y-58675324D01*
X76010102Y-58673499D01*
X76193019Y-58665369D01*
X76312883Y-58646955D01*
X76393136Y-58614275D01*
X76457215Y-58563350D01*
X76469156Y-58551623D01*
X76592858Y-58427922D01*
X76194265Y-58411769D01*
X75795671Y-58395616D01*
X75795671Y-58040665D01*
X75795671Y-57685714D01*
X76180520Y-57685714D01*
X76565368Y-57685714D01*
X76565368Y-57465801D01*
X76565368Y-57245887D01*
X76895239Y-57245887D01*
X77225109Y-57245887D01*
X77225109Y-57438311D01*
G37*
G36*
X79589178Y-59960679D02*
G01*
X79589178Y-60324675D01*
X78992937Y-60324675D01*
X78720620Y-60327229D01*
X78536250Y-60337028D01*
X78417892Y-60357284D01*
X78343608Y-60391204D01*
X78305708Y-60425216D01*
X78235743Y-60515903D01*
X78214719Y-60562662D01*
X78264873Y-60581458D01*
X78396096Y-60594750D01*
X78572078Y-60599567D01*
X78929438Y-60599567D01*
X78929438Y-60956926D01*
X78929438Y-61314285D01*
X78572078Y-61314285D01*
X78214719Y-61314285D01*
X78214719Y-61534199D01*
X78214719Y-61754112D01*
X77857360Y-61754112D01*
X77500000Y-61754112D01*
X77500000Y-61561688D01*
X77489731Y-61431559D01*
X77443520Y-61378287D01*
X77362555Y-61369264D01*
X77269606Y-61383640D01*
X77231554Y-61448336D01*
X77225109Y-61561688D01*
X77225109Y-61754112D01*
X76895239Y-61754112D01*
X76565368Y-61754112D01*
X76565368Y-61534199D01*
X76565368Y-61314285D01*
X76180520Y-61314285D01*
X75795671Y-61314285D01*
X75795671Y-60959335D01*
X75795671Y-60604384D01*
X76194265Y-60588231D01*
X76592858Y-60572078D01*
X76469156Y-60448376D01*
X76405499Y-60393643D01*
X76330001Y-60357892D01*
X76219223Y-60337140D01*
X76049725Y-60327410D01*
X75798067Y-60324719D01*
X75740693Y-60324675D01*
X75135931Y-60324675D01*
X75135931Y-59960679D01*
X75135931Y-59596683D01*
X75809416Y-59620510D01*
X76156906Y-59638643D01*
X76409539Y-59666086D01*
X76582174Y-59704840D01*
X76653419Y-59734295D01*
X76872565Y-59892679D01*
X77056516Y-60104117D01*
X77177293Y-60332962D01*
X77204226Y-60436066D01*
X77238589Y-60580291D01*
X77293431Y-60643297D01*
X77363055Y-60654545D01*
X77447378Y-60633638D01*
X77504370Y-60553226D01*
X77548066Y-60411820D01*
X77621342Y-60215412D01*
X77726460Y-60032524D01*
X77753566Y-59997507D01*
X77883509Y-59860717D01*
X78021249Y-59762785D01*
X78189091Y-59696474D01*
X78409342Y-59654550D01*
X78704307Y-59629776D01*
X78915693Y-59620510D01*
X79589178Y-59596683D01*
X79589178Y-59960679D01*
G37*
D11*
%TO.C,J2*%
X65670000Y-73170000D02*
X67000000Y-73170000D01*
X65670000Y-74500000D02*
X65670000Y-73170000D01*
X65670000Y-75770000D02*
X65670000Y-75830000D01*
X65670000Y-75770000D02*
X68270000Y-75770000D01*
X65670000Y-75830000D02*
X70870000Y-75830000D01*
X68270000Y-73170000D02*
X70870000Y-73170000D01*
X68270000Y-75770000D02*
X68270000Y-73170000D01*
X70870000Y-73170000D02*
X70870000Y-75830000D01*
%TO.C,R1*%
X74722936Y-68090000D02*
X76177064Y-68090000D01*
X74722936Y-69910000D02*
X76177064Y-69910000D01*
%TO.C,C3*%
X66410000Y-70273752D02*
X66410000Y-68851248D01*
X64590000Y-70273752D02*
X64590000Y-68851248D01*
%TO.C,J3*%
X52050000Y-59830000D02*
X52050000Y-58500000D01*
X53380000Y-59830000D02*
X52050000Y-59830000D01*
X54650000Y-57170000D02*
X67410000Y-57170000D01*
X54650000Y-59830000D02*
X54650000Y-57170000D01*
X54650000Y-59830000D02*
X67410000Y-59830000D01*
X67410000Y-59830000D02*
X67410000Y-57170000D01*
D13*
%TO.C,J1*%
X50620000Y-74270000D02*
X50620000Y-59030000D01*
X50620000Y-69190000D02*
X45540000Y-69190000D01*
X50620000Y-59030000D02*
X45540000Y-59030000D01*
X45540000Y-74270000D02*
X50620000Y-74270000D01*
X45540000Y-59030000D02*
X45540000Y-74270000D01*
%TD*%
D14*
%TO.C,J1*%
X46810000Y-73000000D03*
X46810000Y-70460000D03*
X46810000Y-67920000D03*
X46810000Y-65380000D03*
X46810000Y-62840000D03*
X46810000Y-60300000D03*
X49350000Y-73000000D03*
X49350000Y-70460000D03*
X49350000Y-67920000D03*
X49350000Y-65380000D03*
X49350000Y-62840000D03*
D15*
X49350000Y-60300000D03*
%TD*%
M02*
